HIERARCHY
ROOT Hips
{
    OFFSET 0.000000 0.000000 0.000000
    CHANNELS 6 Xposition Yposition Zposition Zrotation Yrotation Xrotation
    JOINT LeftUpLeg
    {
        OFFSET 1.623290 -1.808000 0.673180
        CHANNELS 3 Zrotation Yrotation Xrotation
        JOINT LeftLeg
        {
            OFFSET 2.571390 -7.064839 0.000000
            CHANNELS 3 Zrotation Yrotation Xrotation
            JOINT LeftFoot
            {
                OFFSET 2.520170 -6.924130 0.000000
                CHANNELS 3 Zrotation Yrotation Xrotation
                JOINT LeftToeBase
                {
                    OFFSET 0.232950 -0.640010 2.102140
                    CHANNELS 3 Zrotation Yrotation Xrotation
                    End Site
                    {
                        OFFSET 0.000000 0.000000 0.000000
                    }
                }
            }
        }
    }
    JOINT RightUpLeg
    {
        OFFSET -1.480610 -1.808000 0.673180
        CHANNELS 3 Zrotation Yrotation Xrotation
        JOINT RightLeg
        {
            OFFSET -2.632580 -7.232960 0.000000
            CHANNELS 3 Zrotation Yrotation Xrotation
            JOINT RightFoot
            {
                OFFSET -2.547790 -7.000000 0.000000
                CHANNELS 3 Zrotation Yrotation Xrotation
                JOINT RightToeBase
                {
                    OFFSET -0.230670 -0.633760 2.121610
                    CHANNELS 3 Zrotation Yrotation Xrotation
                    End Site
                    {
                        OFFSET 0.000000 0.000000 0.000000
                    }
                }
            }
        }
    }
    JOINT Spine
    {
        OFFSET -0.021080 2.075730 -0.169810
        CHANNELS 3 Zrotation Yrotation Xrotation
        JOINT Spine1
        {
            OFFSET 0.050700 2.084390 -0.031410
            CHANNELS 3 Zrotation Yrotation Xrotation
            JOINT Neck1
            {
                OFFSET -0.107310 1.604080 0.313700
                CHANNELS 3 Zrotation Yrotation Xrotation
                JOINT Head
                {
                    OFFSET 0.084110 1.656790 -0.308220
                    CHANNELS 3 Zrotation Yrotation Xrotation
                    End Site
                    {
                        OFFSET 0.000000 0.000000 0.000000
                    }
                }
            }
            JOINT LeftShoulder
            {
                OFFSET 0.000000 0.000000 0.000000
                CHANNELS 3 Zrotation Yrotation Xrotation
                JOINT LeftArm
                {
                    OFFSET 3.523150 0.732190 -0.546940
                    CHANNELS 3 Zrotation Yrotation Xrotation
                    JOINT LeftForeArm
                    {
                        OFFSET 5.324620 -0.000000 -0.000000
                        CHANNELS 3 Zrotation Yrotation Xrotation
                        JOINT LeftHand
                        {
                            OFFSET 3.484020 -0.000000 -0.000000
                            CHANNELS 3 Zrotation Yrotation Xrotation
                            End Site
                            {
                                OFFSET 0.000000 0.000000 0.000000
                            }
                        }
                    }
                }
            }
            JOINT RightShoulder
            {
                OFFSET 0.000000 0.000000 0.000000
                CHANNELS 3 Zrotation Yrotation Xrotation
                JOINT RightArm
                {
                    OFFSET -3.417660 0.935920 -0.100190
                    CHANNELS 3 Zrotation Yrotation Xrotation
                    JOINT RightForeArm
                    {
                        OFFSET -5.335890 -0.000000 -0.000000
                        CHANNELS 3 Zrotation Yrotation Xrotation
                        JOINT RightHand
                        {
                            OFFSET -3.641340 -0.000000 -0.000000
                            CHANNELS 3 Zrotation Yrotation Xrotation
                            End Site
                            {
                                OFFSET 0.000000 0.000000 0.000000
                            }
                        }
                    }
                }
            }
        }
    }
}
MOTION
Frames: 10
Frame Time: 0.016667
-2.382900 16.565100 1.001000 0.901458 -1.558340 23.854763 -15.186890 0.832772 -41.622318 -20.814455 -19.419598 51.239895 -3.465425 32.730564 -20.122267 -0.190579 -1.756774 0.393890 13.750690 3.950787 -36.474186 4.629251 3.654937 33.534351 -1.523389 -28.551905 -23.153967 -0.368722 0.299097 -1.704275 1.705387 -0.802726 6.880691 -0.764076 -0.926067 -3.021785 4.306961 -4.297448 16.448320 -4.019445 -2.139102 -5.383064 12.891943 -5.931287 -2.323354 -25.570183 -24.973557 1.088112 38.259830 -41.994934 -33.798286 7.718249 -1.185296 -12.342997 -11.275364 4.796737 1.259441 32.702312 2.962435 2.731150 -54.840122 64.658836 -41.215927 -8.948701 1.555332 -5.953539 
-2.392200 16.565800 0.982400 0.731719 -1.462159 23.956470 -15.038875 0.788766 -41.821144 -20.934204 -19.448750 51.335667 -3.319824 32.926350 -20.093504 -0.178598 -1.754075 0.399663 13.718269 4.088670 -36.771397 4.895442 3.966934 33.687675 -1.212513 -28.535799 -23.262993 -0.376506 0.246901 -1.732665 1.649340 -0.751421 6.819448 -0.874938 -0.901820 -3.040458 4.419654 -4.390630 16.292715 -4.013699 -2.131088 -5.502220 12.817910 -5.796255 -2.196809 -26.594181 -24.301727 1.957810 38.106106 -41.769371 -33.694302 7.744779 -1.219168 -12.244008 -11.484167 4.742207 1.181129 32.247501 3.169029 2.008125 -56.993076 64.334618 -43.074326 -9.154132 1.427901 -5.650609 
-2.403200 16.573400 0.954500 0.556121 -1.319603 24.048723 -14.897020 0.744230 -42.072815 -21.068081 -19.452375 51.439079 -3.214237 33.133083 -20.092039 -0.171221 -1.734507 0.414997 13.651469 4.216501 -37.049236 5.123671 4.217519 33.791492 -1.138169 -28.449669 -23.277464 -0.369874 0.171796 -1.770962 1.599760 -0.691327 6.769101 -0.978631 -0.888912 -3.062272 4.530209 -4.474477 16.141750 -4.020370 -2.142771 -5.622466 12.753931 -5.657634 -2.070053 -27.567774 -23.631424 2.761161 37.886162 -41.737198 -33.538464 7.632812 -1.214038 -12.384195 -11.670813 4.704601 1.102022 31.808943 3.427744 1.309746 -59.300297 64.097160 -44.994720 -9.326967 1.295014 -5.140052 
-2.410900 16.573999 0.932400 0.396697 -1.144589 24.147690 -14.746449 0.696418 -42.321198 -21.196423 -19.457626 51.551289 -2.996331 33.354622 -20.028744 -0.158289 -1.724253 0.419974 13.597605 4.345017 -37.310989 5.355545 4.494108 33.897167 -0.815613 -28.542559 -23.454056 -0.373047 0.117689 -1.802236 1.548970 -0.651255 6.715529 -1.088209 -0.873000 -3.082983 4.632100 -4.566390 15.994712 -4.032050 -2.112248 -5.727465 12.682625 -5.543989 -1.952254 -28.530140 -23.066093 3.589504 37.723755 -41.483139 -33.399509 7.671797 -1.245872 -12.262020 -11.852186 4.685385 1.011346 31.395071 3.839538 0.548663 -61.583862 63.744312 -47.024857 -9.506480 1.171602 -4.742685 
-2.422100 16.579100 0.906300 0.235758 -0.946731 24.232309 -14.601510 0.649575 -42.609203 -21.347321 -19.452379 51.677086 -2.822152 33.557316 -19.995440 -0.148402 -1.701775 0.432263 13.512912 4.450633 -37.557354 5.556713 4.725602 33.957031 -0.647623 -28.592657 -23.531586 -0.363048 0.040546 -1.847617 1.504222 -0.603535 6.673341 -1.193546 -0.864649 -3.107244 4.729942 -4.652032 15.855595 -4.062833 -2.085438 -5.835549 12.601200 -5.429368 -1.831318 -29.480330 -22.556042 4.391520 37.481018 -41.381321 -33.210869 7.576784 -1.242614 -12.362991 -12.006402 4.674688 0.921136 31.017553 4.273143 -0.223407 -63.841969 63.511524 -48.929573 -9.601922 1.025905 -4.332386 
-2.426400 16.580000 0.884200 0.095066 -0.772239 24.323711 -14.457397 0.594745 -42.902924 -21.490730 -19.452492 51.807144 -2.587031 33.777916 -19.921707 -0.134595 -1.688380 0.432723 13.439041 4.552752 -37.807636 5.777085 4.978182 34.083466 -0.296467 -28.760712 -23.661461 -0.363322 -0.025734 -1.876260 1.458079 -0.558117 6.622834 -1.307378 -0.853642 -3.129299 4.807631 -4.715117 15.721837 -4.102472 -2.015603 -5.933158 12.513401 -5.324525 -1.717657 -30.416759 -22.044556 5.224308 37.294086 -41.041782 -33.030586 7.627395 -1.274581 -12.246599 -12.155589 4.686288 0.821267 30.621559 4.898855 -1.040606 -65.841301 63.149094 -50.675922 -9.749777 0.873629 -3.897761 
-2.434900 16.583401 0.855100 -0.049331 -0.327997 24.402704 -14.331153 0.537320 -43.234600 -21.631416 -19.434116 51.928558 -2.414362 33.986946 -19.882713 -0.123403 -1.668017 0.436605 13.348328 4.640236 -38.035057 5.999763 5.231909 34.186478 -0.074956 -28.859581 -23.682629 -0.351434 -0.082529 -1.923978 1.415169 -0.499643 6.581829 -1.421990 -0.843217 -3.154763 4.882629 -4.753424 15.598944 -4.144058 -1.967419 -6.037019 12.409989 -5.216714 -1.597331 -31.354345 -21.510916 6.028049 36.914646 -40.788105 -32.729767 7.558757 -1.270418 -12.344392 -12.286896 4.708252 0.724045 30.208618 5.540163 -1.858778 -67.864227 62.942120 -52.348843 -9.814979 0.705440 -3.446179 
-2.442300 16.585100 0.831800 -0.180616 0.009726 24.492617 -14.192185 0.476472 -43.562416 -21.746124 -19.416258 52.039921 -2.203027 34.191704 -19.817215 -0.109011 -1.654830 0.429806 13.279288 4.736834 -38.267723 6.270513 5.518754 34.416355 0.407050 -29.121872 -23.886488 -0.344713 -0.130265 -1.966392 1.371597 -0.443722 6.536936 -1.543693 -0.826548 -3.178229 4.944014 -4.787546 15.474012 -4.186394 -1.888967 -6.134008 12.299515 -5.114728 -1.481807 -32.308632 -20.972128 6.919173 36.666782 -40.331310 -32.484570 7.607915 -1.304287 -12.311999 -12.416237 4.745673 0.623850 29.830673 6.269821 -2.723434 -69.755493 62.596832 -53.967445 -9.937446 0.548501 -3.052509 
-2.448900 16.588301 0.801400 -0.318782 0.287701 24.566570 -14.066804 0.415354 -43.896446 -21.851555 -19.412489 52.119007 -2.075464 34.361485 -19.792618 -0.100030 -1.639658 0.432169 13.208741 4.814591 -38.487179 6.523549 5.777210 34.606369 0.682316 -29.292120 -23.956657 -0.328831 -0.194529 -2.016435 1.329918 -0.378336 6.501606 -1.667006 -0.809445 -3.202707 5.011636 -4.814735 15.355371 -4.230392 -1.835977 -6.233574 12.169645 -5.014006 -1.361544 -33.262306 -20.380297 7.785802 36.106754 -39.916561 -31.996899 7.562801 -1.276032 -12.512732 -12.528084 4.786855 0.527882 29.404713 7.004735 -3.507875 -71.200394 62.574745 -55.174870 -9.955769 0.364589 -2.649276 
-2.459600 16.585800 0.775400 -0.440782 0.673272 24.650902 -13.931284 0.354152 -44.220711 -21.926201 -19.419613 52.179790 -1.940091 34.575565 -19.746731 -0.089897 -1.628270 0.419332 13.155023 4.900091 -38.735813 6.871337 6.126465 34.975998 1.194175 -29.507866 -24.170805 -0.320664 -0.230913 -2.057031 1.286494 -0.303271 6.460894 -1.782570 -0.788516 -3.233905 5.064431 -4.826411 15.233655 -4.273458 -1.758282 -6.332550 12.021029 -4.914656 -1.241688 -34.238396 -19.751789 8.730815 35.707954 -39.361004 -31.627167 7.710182 -1.180952 -12.845839 -12.643938 4.853007 0.418760 29.017601 7.802963 -4.351068 -72.452286 62.444645 -56.241173 -10.059304 0.222116 -2.250166 
